# xmcd CD database file
#
# Track frame offsets:
#	150
#	16108
#	33168
#	52683
#	70425
#	92233
#	111813
#	131813
#	152628
#	172555
#	188293
#	207743
#	229605
#	252903
#
# Disc length: 3689 seconds
#
# Revision: 0
# Processed by: cddbd v1.5.2PL0 Copyright (c) Steve Scherf et al.
# Submitted via: CDex 1.70beta2
#
DISCID=a90e670e
DTITLE=トーマス・ハーデン・トリオ - JAZZで聴く…J-POP1
DYEAR=2002
DGENRE=Jazz
TTITLE0=夢の中へ
TTITLE1=飾りじゃないのよ涙は
TTITLE2=浪漫飛行
TTITLE3=ルージュの伝言
TTITLE4=やさしさに包まれたなら
TTITLE5=シュラバ★ラ★バンバ
TTITLE6=Eyes to me
TTITLE7=YAH YAH YAH
TTITLE8=ミス・ブランニュー・デイ
TTITLE9=チャコの海岸物語
TTITLE10=私はピアノ
TTITLE11=Automatic
TTITLE12=HELLO
TTITLE13=波乗りジョニー
EXTD=YEAR: 2002
EXTT0=
EXTT1=
EXTT2=
EXTT3=
EXTT4=
EXTT5=
EXTT6=
EXTT7=
EXTT8=
EXTT9=
EXTT10=
EXTT11=
EXTT12=
EXTT13=
PLAYORDER=
